<svg width="24" height="18" viewBox="0 0 24 18" fill="none" xmlns="http://www.w3.org/2000/svg">
<path fill-rule="evenodd" clip-rule="evenodd" d="M16.373 12H3.356L4.195 14H17.854L21.328 2H23.257L24 0H19.805L16.373 12ZM16.53 4L15.966 6H0.839L0 4H16.53ZM2.517 10H14.836L15.4 8H1.678L2.517 10ZM7 16.5C7 15.672 7.672 15 8.5 15C9.328 15 10 15.672 10 16.5C10 17.329 9.328 18 8.5 18C7.672 18 7 17.329 7 16.5ZM12 16.5C12 15.671 12.672 15 13.5 15C14.328 15 15 15.672 15 16.5C15 17.329 14.328 18 13.5 18C12.672 18 12 17.329 12 16.5Z" fill="white"/>
</svg>
